<svg width="249" height="250" xmlns="http://www.w3.org/2000/svg" xmlns:xlink="http://www.w3.org/1999/xlink" xml:space="preserve" overflow="hidden"><g transform="translate(-244 -14)"><g><g><g><g><path d="M464.898 139.5C464.898 171.514 447.824 201.75 420.434 218.469 392.689 235.543 356.762 236.966 327.949 222.026 299.491 207.441 279.927 178.984 277.437 147.326 274.591 115.312 289.176 83.6527 315.143 64.4443 341.466 45.2357 377.037 40.9672 406.917 53.4172 436.086 65.5115 458.14 92.19 463.476 123.493 464.543 128.829 464.898 134.164 464.898 139.5Z" fill="#FFFFFF" fill-rule="nonzero" fill-opacity="1"/><path d="M270.678 139.5C270.323 85.0758 314.431 40.2557 369.923 39.9 401.582 39.9 432.173 55.1957 451.026 80.8072 470.234 107.13 475.214 141.99 464.543 172.581 450.67 211.354 413.32 238.033 372.057 238.744 315.499 240.167 270.323 194.28 270.678 139.5 270.323 85.0758 270.323 194.28 270.678 139.5ZM277.082 139.5C277.082 190.723 318.7 232.342 369.567 232.697 421.146 233.053 462.409 191.79 463.12 141.634 464.187 88.6328 421.857 46.6585 371.346 46.3028 318.7 46.3028 277.082 88.2772 277.082 139.5Z" fill="#085521" fill-rule="nonzero" fill-opacity="1"/><path d="M279.927 139.5C279.927 89.3443 320.123 50.2157 368.5 49.1485 419.367 48.4372 460.63 89.7 460.274 139.856 459.918 189.3 420.434 228.784 371.702 229.851 320.479 230.563 279.927 189.656 279.927 139.5ZM458.496 139.5C458.496 90.7672 419.367 51.2828 370.279 51.2828 320.834 50.9272 282.061 90.7672 281.706 138.077 280.994 187.877 321.19 227.361 369.567 227.717 418.3 228.073 458.496 188.944 458.496 139.5Z" fill="#085521" fill-rule="nonzero" fill-opacity="1"/><path d="M420.434 142.702C420.434 156.219 411.897 167.601 398.736 171.514L393.4 172.581C392.689 172.581 391.977 172.937 391.977 173.649 389.487 179.696 385.574 183.964 379.883 187.166 367.433 192.857 352.849 186.81 348.224 173.649 347.868 172.937 347.513 172.581 346.801 172.581 334.707 171.158 326.17 164.756 321.546 153.729 315.854 139.5 322.613 122.782 336.486 116.023 339.687 114.244 343.244 113.533 346.801 113.177 347.513 113.177 347.868 112.822 347.868 112.11 351.07 103.573 357.117 98.2372 366.366 96.8143 376.681 95.0358 387.353 101.438 390.91 111.398 390.91 111.754 390.91 111.754 391.266 112.11 391.621 112.822 391.977 113.177 393.044 113.533 400.514 114.244 406.561 117.09 411.897 122.782 416.166 127.406 419.012 132.742 419.723 139.144 420.078 140.212 420.078 141.634 420.434 142.702 420.434 156.219 420.078 141.634 420.434 142.702ZM323.68 142.702C323.68 143.769 323.68 144.836 324.036 145.547 324.392 146.97 324.392 148.393 325.103 149.46 326.882 155.507 330.439 160.843 335.774 164.044 338.62 165.823 341.466 166.89 344.667 167.601 347.157 167.957 351.07 166.89 351.781 169.736 354.627 181.474 367.433 187.877 378.104 182.897 384.152 180.051 387.353 175.427 388.776 169.38 388.776 168.313 398.38 167.246 400.159 166.534 404.072 165.111 407.629 162.621 410.118 159.42 416.522 151.594 417.944 143.057 414.743 133.453 412.608 128.117 409.051 123.849 404.072 120.647 401.937 119.224 399.447 118.157 396.957 117.446 395.534 117.09 389.132 117.09 389.132 115.667 387.708 107.841 381.306 101.794 373.48 100.371 363.164 98.5928 353.56 105.352 351.781 115.667 351.781 117.09 344.667 117.09 343.244 117.801 331.861 121.003 324.036 131.674 323.68 142.702 323.68 143.769 324.036 131.674 323.68 142.702ZM396.957 199.616C402.648 196.77 408.34 193.924 413.32 190.012L412.964 190.367C412.253 191.079 412.253 191.79 413.32 192.146 416.166 193.568 418.656 194.992 421.501 196.414L421.857 196.414C421.857 195.703 421.501 194.992 421.501 194.28 420.79 192.146 420.434 190.367 419.723 188.233 419.723 187.877 419.367 187.521 419.367 187.166 419.012 186.454 418.3 186.098 417.589 186.454 417.233 186.454 417.233 186.81 416.877 186.81 416.877 186.81 416.877 186.454 417.233 186.454 419.723 184.676 421.146 182.541 422.924 180.051 424.347 178.273 425.414 177.206 426.126 175.427 426.482 174.716 426.837 174.716 427.548 175.072 428.26 175.783 429.327 176.139 430.038 176.85 430.038 176.85 430.394 177.206 430.394 177.561 430.038 177.561 429.683 177.206 428.971 177.206 427.548 176.85 426.482 177.206 425.77 177.917 425.059 178.629 424.347 179.696 423.636 180.407 423.636 180.407 423.636 181.118 423.991 181.118 425.414 182.186 426.837 183.253 427.904 183.964 428.616 184.32 428.971 184.32 428.971 183.608 429.683 182.541 429.327 181.474 428.616 180.763L427.548 179.696 427.904 179.34C430.038 180.763 431.817 182.186 433.952 183.608L433.952 183.964C433.596 183.964 433.24 183.964 433.24 183.608 431.462 182.897 430.394 182.897 430.038 183.964 429.683 184.32 429.683 184.676 430.038 185.031 431.462 186.098 432.529 186.81 433.596 187.521 435.018 188.233 436.086 186.454 436.441 185.387 437.509 183.608 437.509 182.186 436.441 180.407 436.086 180.051 436.086 179.696 436.086 179.34 436.086 179.34 436.441 179.34 436.441 179.696 437.509 180.763 438.22 181.474 439.287 182.186 439.287 182.541 439.643 182.897 439.287 183.253 436.797 186.454 434.307 190.012 431.817 193.213L431.462 193.213 431.462 192.857C432.173 191.79 432.173 191.079 431.106 190.367 428.26 187.877 425.059 186.098 422.213 183.608 419.723 182.186 420.078 186.098 420.434 187.166L423.636 198.904C423.636 199.26 423.991 199.971 423.991 200.327L423.636 200.683C422.569 200.327 421.857 199.616 420.79 199.26 417.233 197.481 413.32 195.703 409.763 193.568 408.696 193.213 407.984 193.213 406.917 193.568 405.85 193.568 406.917 196.059 407.273 196.414 409.051 199.26 410.118 201.75 411.897 204.596 412.964 206.73 412.964 206.73 414.743 206.019L414.743 206.374C412.253 207.797 410.474 208.864 407.984 209.932L408.34 209.576C410.474 208.153 404.427 198.904 403.004 197.126 402.293 195.703 400.514 197.126 399.803 197.837 399.091 198.548 399.447 199.971 399.447 200.683 400.87 204.24 402.293 208.153 403.36 211.71L403.36 212.421 403.004 212.777C398.38 209.932 394.111 207.441 389.132 204.596L389.132 205.663C390.199 208.508 391.266 210.999 391.977 213.844 392.689 215.623 393.044 215.979 394.823 215.979L394.823 216.334C393.044 217.046 391.977 217.402 390.199 218.113 391.977 216.334 391.977 216.334 390.91 214.2 389.843 211.354 388.776 208.508 388.064 205.663 387.708 204.952 386.997 204.24 386.286 204.24 383.084 203.173 384.863 209.22 384.863 210.287 385.219 211.71 385.219 213.133 385.574 214.556 385.93 217.757 383.796 219.536 381.661 220.247 378.104 221.314 375.259 219.892 374.191 216.334 373.836 213.844 373.48 211.354 373.124 208.508 372.768 206.374 372.768 206.374 370.99 205.663 373.48 205.307 375.614 204.952 378.46 204.596L378.46 204.952C376.681 205.663 376.681 205.663 376.681 207.441 377.037 210.287 377.037 218.113 380.594 218.824 386.286 219.536 384.863 212.777 384.152 209.576 384.152 208.864 383.796 207.797 383.796 207.086 383.44 205.663 383.44 204.24 380.95 204.24L380.95 203.884 382.017 203.884C384.507 203.529 386.642 202.817 388.776 202.106 389.487 201.75 389.843 201.75 390.554 202.106 393.4 203.884 396.246 205.307 398.736 207.086 399.091 207.441 399.447 207.441 399.803 207.797L399.803 206.73C399.091 204.952 398.736 203.529 398.024 202.106 399.091 200.327 398.736 198.904 396.957 199.616 402.648 196.77 398.736 198.904 396.957 199.616ZM415.454 95.3915C415.454 95.0358 415.098 95.0358 415.454 95.3915 413.676 94.68 412.608 93.9685 411.186 93.9685 410.474 93.6127 407.629 91.4785 409.763 91.4785 411.542 91.4785 413.32 91.8343 414.743 92.9015 416.877 93.9685 418.656 95.3915 420.434 96.1028L420.79 96.4585 421.857 96.4585C421.857 96.1028 421.501 95.7472 421.501 95.7472 419.723 94.68 418.3 93.2572 416.522 92.5458 415.81 92.19 414.743 92.19 414.031 91.8343 413.676 91.8343 413.32 91.4785 412.964 91.4785 412.253 91.1227 411.186 90.4115 410.474 90.0557 408.696 88.9885 405.494 91.4785 404.072 92.5458 403.36 92.9015 402.648 92.9015 402.293 92.19 401.937 91.8343 401.937 90.4115 402.648 90.0557 403.716 88.9885 404.783 88.6328 405.494 87.21 405.85 86.8543 408.34 85.4315 408.34 86.8543 409.051 87.9215 410.118 88.2772 410.83 87.21 412.253 85.4315 413.32 84.0085 414.031 82.23 415.098 81.1628 416.166 80.0957 416.166 82.5857 416.166 84.72 414.031 86.1428 412.964 87.9215L412.964 88.9885C413.32 88.9885 413.676 88.9885 414.031 88.6328 415.81 86.1428 417.233 84.0085 419.012 81.5185 419.723 80.8072 420.078 80.4515 420.79 81.5185 421.501 82.23 422.924 82.23 423.28 83.6527 423.991 85.4315 426.837 82.23 426.837 82.9415 427.904 84.72 427.193 85.0758 426.482 86.4985L426.126 86.4985C425.059 86.8543 423.991 86.8543 424.347 88.2772 424.347 88.6328 423.991 88.9885 424.347 89.3443 424.703 90.0557 425.059 90.4115 425.77 91.1227L426.126 90.7672C426.126 90.0557 425.77 88.2772 425.414 87.9215 425.77 88.2772 426.482 88.2772 426.837 88.6328 427.193 88.6328 427.904 88.9885 428.26 89.3443 428.971 89.7 429.683 90.4115 429.327 91.1227 429.327 92.19 429.327 92.9015 428.26 93.6127L423.991 95.7472C423.636 95.7472 423.636 96.1028 423.28 96.1028L423.636 96.4585C425.77 97.17 426.837 102.506 424.703 101.794 423.991 101.794 423.28 101.438 422.924 101.083 421.857 100.371 420.79 98.5928 419.367 99.3042 418.656 100.016 416.166 98.9485 415.098 99.66 415.098 100.016 415.454 100.371 415.454 100.371 416.522 101.083 420.078 102.15 419.367 103.573 419.367 105.352 417.233 106.419 416.522 104.64 415.81 103.928 415.454 103.217 414.743 102.861 413.676 101.794 413.32 101.794 412.608 103.217 411.542 104.996 409.763 106.063 408.34 106.419 407.273 106.419 406.206 107.13 405.494 106.063 404.783 104.996 404.783 102.506 404.427 101.438 404.427 101.083 404.072 100.727 404.072 100.371 404.783 100.727 404.783 100.727 405.139 100.727 406.917 101.438 407.984 103.573 409.763 101.794 410.474 100.727 410.83 100.371 409.407 99.66 408.34 98.9485 407.273 98.2372 406.561 97.8815 403.716 96.4585 404.427 92.19 407.273 95.0358 408.34 95.7472 409.407 96.4585 410.474 97.5257 411.542 98.5928 411.897 96.4585 413.32 96.4585 414.031 96.1028 414.743 96.1028 415.454 95.3915 415.454 95.0358 414.743 96.1028 415.454 95.3915ZM419.367 85.7872C420.434 85.7872 422.213 83.6527 421.146 83.6527L420.434 83.6527C420.078 84.0085 419.367 84.3643 419.012 85.0758 419.012 85.0758 419.012 85.4315 419.367 85.7872 419.012 85.7872 419.367 85.7872 419.367 85.7872ZM417.233 89.3443C417.589 89.3443 417.944 88.9885 418.3 88.9885 418.656 88.6328 419.012 88.2772 418.656 87.5658 417.944 86.8543 416.877 87.9215 416.166 88.2772L415.81 88.6328C415.81 88.9885 416.166 88.9885 416.166 88.9885 416.522 89.3443 416.877 89.3443 417.233 89.3443ZM425.059 90.4115C424.347 90.0557 423.991 89.7 423.636 89.3443L423.636 89.7 424.703 90.7672C424.703 91.1227 424.703 90.7672 425.059 90.4115 424.703 90.0557 424.703 90.7672 425.059 90.4115ZM324.392 94.68C323.68 95.7472 322.613 97.17 322.969 98.5928 323.324 100.016 321.901 100.727 320.479 100.727 319.411 100.371 318.344 100.016 317.633 100.016 316.922 99.66 316.566 99.66 315.854 98.9485 315.143 97.8815 314.431 96.8143 314.076 96.1028 313.72 95.7472 313.364 95.3915 313.364 94.68 313.009 93.6127 313.364 92.19 314.431 92.19 315.143 91.8343 315.499 91.4785 315.499 90.7672 315.854 89.7 316.21 88.2772 316.566 87.5658 316.566 86.8543 316.566 86.4985 316.21 86.1428 314.431 85.0758 309.807 81.1628 314.431 79.74 316.21 79.3843 317.277 81.1628 318.344 82.23 319.411 83.2972 321.19 80.0957 321.19 79.3843 321.901 77.6058 324.392 76.5385 326.17 77.6058 326.882 77.9615 326.882 79.0285 326.882 80.0957 326.526 80.8072 326.526 81.8743 326.882 82.5857 326.882 84.3643 330.083 84.0085 329.371 86.4985 329.371 86.8543 329.016 87.21 328.66 87.5658 327.949 88.6328 327.593 89.7 326.882 90.4115 326.882 90.7672 327.237 91.4785 327.237 91.8343 329.727 94.68 332.573 97.5257 335.063 100.016L337.197 103.217C337.909 103.928 336.486 105.352 335.419 104.64 331.506 102.15 327.949 98.5928 324.747 95.3915 325.103 95.3915 324.747 95.0358 324.392 94.68 323.68 96.1028 324.747 95.0358 324.392 94.68ZM324.392 85.4315C324.036 84.3643 324.036 83.6527 323.324 82.9415 322.969 82.23 322.613 82.23 321.901 82.9415 320.479 84.0085 320.479 84.72 321.546 85.7872 322.257 86.4985 323.324 87.9215 324.036 86.1428 324.392 85.7872 324.392 85.7872 324.392 85.4315ZM321.546 92.5458C321.19 91.8343 319.767 90.0557 319.056 90.0557L318.7 90.4115C318.344 90.7672 318.344 91.4785 317.988 91.8343 317.277 92.9015 317.277 92.9015 318.344 93.6127 320.479 93.6127 319.767 93.9685 321.546 92.5458 321.19 91.8343 321.19 92.9015 321.546 92.5458ZM362.453 219.892C359.963 215.267 357.117 210.643 354.627 206.019L354.271 206.374C353.56 209.22 353.204 212.066 352.493 214.911 352.137 216.69 352.493 217.046 353.916 217.757L353.916 218.113C352.137 217.757 350.714 217.402 348.936 217.046 348.936 216.69 348.936 216.69 349.292 216.69 351.426 216.334 351.426 216.334 351.781 214.2 352.493 210.999 353.204 207.797 353.56 204.596 353.56 203.884 352.849 202.462 352.137 202.106 351.781 202.106 351.426 202.462 351.426 202.462 351.07 203.173 351.07 204.24 350.358 205.307L350.003 205.307C350.003 202.817 348.936 199.971 345.734 199.971 345.379 199.616 345.023 199.971 344.667 200.327 343.956 202.106 343.244 203.173 342.889 204.952 342.533 205.307 342.889 205.663 343.244 206.019 344.311 206.374 345.379 206.019 345.734 204.952 346.09 204.596 346.446 203.884 346.801 203.529L347.157 203.529C346.09 206.019 345.023 208.153 344.667 210.643L344.311 210.643C344.311 209.22 344.667 207.086 342.889 206.73 341.822 205.663 340.398 210.287 340.043 210.999 339.687 212.066 340.043 212.421 340.754 212.777 342.533 213.488 343.956 214.2 345.734 213.488 346.446 213.133 347.513 212.421 347.868 211.354L348.224 211.71 348.224 212.066C347.513 213.133 346.801 214.556 346.09 215.267 346.09 215.623 345.379 215.623 345.379 215.623 341.822 214.2 337.909 212.777 333.996 211.354L333.64 210.999 333.996 210.999C336.13 211.354 336.13 210.287 336.841 208.508 337.909 205.663 339.331 202.817 340.398 199.616 340.754 198.193 338.62 196.77 338.62 197.837 338.264 198.548 337.553 199.616 337.197 200.327 337.197 200.683 337.197 200.683 336.841 201.038L336.486 200.683 336.486 199.971C337.197 197.481 335.774 194.992 333.64 194.28 332.217 193.924 330.794 194.992 331.15 196.77 331.861 198.904 333.64 200.327 333.996 202.462 336.13 206.019 331.861 209.932 328.304 208.508 325.814 207.797 325.103 205.307 322.257 205.307 323.324 203.529 324.392 202.106 325.103 200.683L325.458 200.683 325.458 201.394C324.747 204.24 325.814 206.374 327.949 207.441 329.016 208.153 330.083 207.797 330.794 207.086 331.506 206.374 331.861 205.307 331.15 204.596 330.439 203.173 329.371 201.75 328.66 200.327 327.949 199.26 327.593 197.837 327.949 197.126 328.66 194.28 331.506 192.857 334.352 194.28 335.419 194.992 337.553 197.837 338.62 197.126 338.976 197.481 339.331 197.837 340.043 197.837 345.023 199.971 350.003 202.106 355.339 203.173 356.05 203.173 356.406 203.529 356.762 204.24 358.54 207.086 359.607 210.287 361.386 213.133 361.386 213.488 361.741 213.488 361.741 213.844L362.097 213.844C362.097 213.488 362.453 212.777 362.453 212.421 362.809 210.643 363.164 209.22 363.52 207.441 363.876 206.019 363.52 205.663 362.097 204.952 362.097 204.952 361.741 204.952 361.741 204.596 363.164 204.952 364.587 205.307 366.01 205.307L366.01 205.663 365.654 206.019C364.587 206.019 363.876 206.73 363.876 207.441 363.52 209.932 363.164 211.71 362.453 214.2 363.52 215.623 363.164 217.402 362.453 219.892 363.164 219.536 362.809 219.536 362.453 219.892 362.809 219.892 362.809 219.892 362.453 219.892 361.03 217.402 362.809 219.892 362.453 219.892ZM398.736 87.5658C395.89 87.5658 393.044 88.2772 390.554 86.8543 389.132 86.1428 388.776 83.6527 388.064 82.23 387.353 80.0957 386.642 78.3172 385.93 76.1828 385.93 75.8272 385.574 75.4715 385.574 74.76L384.507 75.8272C382.728 77.25 381.661 78.6728 379.883 80.0957 378.46 81.1628 377.749 81.1628 376.681 80.0957 375.97 79.3843 373.836 78.3172 373.836 77.25L374.903 77.25C378.104 78.3172 382.017 75.8272 382.728 73.6928 383.084 72.6257 383.084 72.6257 382.017 72.27 380.95 72.27 379.883 71.9143 379.172 71.5585 378.104 71.2028 377.749 70.4915 377.393 69.78 377.393 69.0685 377.037 68.3572 377.393 67.6458 377.393 66.2228 378.46 65.5115 379.527 65.8672 381.306 66.2228 384.507 68.7128 385.219 66.2228 385.574 65.1557 385.574 63.7327 385.93 63.0215 385.93 62.6657 386.286 62.31 386.642 61.9543 388.776 60.8872 390.554 61.9543 390.91 64.0885 390.91 64.4443 390.554 65.1557 390.554 65.8672 389.843 67.6458 391.977 69.0685 393.4 67.6458 394.111 67.29 394.823 67.6458 395.178 68.3572 395.534 68.7128 395.534 69.0685 395.534 69.0685 395.89 70.1357 395.89 70.4915 394.823 70.8473 393.4 71.2028 390.199 70.8473 389.132 71.9143 388.776 71.9143 388.42 72.6257 388.42 72.9815 389.487 78.3172 391.621 82.5857 396.246 86.1428 397.668 86.1428 398.38 86.4985 398.736 87.5658 398.736 87.21 398.736 87.21 398.736 87.5658 398.38 87.5658 398.736 87.21 398.736 87.5658ZM346.801 64.8C347.513 65.1557 348.58 65.5115 349.292 65.8672 349.647 65.8672 349.647 66.2228 350.003 66.5785 350.714 68.7128 351.426 70.8473 352.493 72.9815 352.849 74.0485 353.56 75.1158 353.916 75.8272 354.271 76.5385 354.627 76.8942 355.339 76.1828L355.694 75.8272C357.828 74.4043 357.828 74.0485 357.117 71.9143 357.117 70.8473 356.406 69.78 357.828 69.4242 359.251 69.0685 361.03 70.1357 361.03 71.5585 362.453 75.1158 362.097 77.25 361.386 80.8072 360.674 82.23 358.896 79.0285 358.896 78.3172 357.828 76.5385 355.694 79.0285 355.339 80.4515 355.339 80.8072 354.627 81.1628 354.271 81.1628 352.137 82.23 350.358 83.2972 349.292 85.4315 348.936 86.8543 347.513 87.21 346.446 86.4985 346.09 86.1428 345.734 86.1428 345.379 85.7872 343.956 85.0758 343.6 80.0957 342.889 78.3172 342.533 77.6058 342.177 77.25 342.889 76.5385 345.379 75.4715 346.446 78.3172 347.157 79.74 348.224 81.1628 350.714 79.3843 350.358 77.9615 349.647 74.76 347.513 72.27 346.446 69.0685 346.09 68.3572 345.734 67.6458 345.023 66.9342 344.311 66.2228 345.023 64.8 346.801 64.8 347.513 65.1557 345.023 64.8 346.801 64.8ZM307.317 149.46C307.317 150.883 307.673 152.306 307.673 153.729L307.317 153.729 306.961 153.373C306.25 151.95 305.894 151.594 304.116 151.95 300.203 152.306 296.29 152.306 292.377 152.661L291.666 152.661 291.666 152.306C295.578 148.749 299.847 145.191 303.404 141.634L303.404 141.279C300.914 141.279 291.666 140.212 291.666 143.769L291.666 138.788C291.666 138.788 291.666 139.144 292.021 139.144 293.089 142.702 301.982 140.567 304.827 140.212 305.539 140.212 305.894 139.5 306.25 139.144 306.25 139.144 306.25 138.433 305.894 138.433 305.539 138.077 305.183 138.077 304.471 137.721 301.982 137.366 300.203 137.01 297.713 136.654 297.001 136.654 295.934 136.299 295.223 136.299 291.666 135.232 291.31 131.674 292.377 128.117 293.8 123.493 299.847 125.271 303.404 125.627 305.183 125.627 306.961 126.694 308.029 124.916 308.029 124.916 308.029 124.56 308.384 124.56L307.317 132.03 306.961 132.03 306.961 132.386C306.961 130.607 306.606 130.251 305.183 130.251L296.646 129.184C294.512 128.829 293.444 129.896 293.089 131.674 292.733 134.164 293.8 135.943 295.934 136.654L302.337 137.721C304.116 137.721 306.25 138.788 306.961 136.654 306.961 136.654 306.961 136.299 307.317 136.299 307.317 138.433 308.029 143.413 306.25 144.836 303.404 147.326 300.914 149.46 298.424 152.306 300.559 152.306 306.961 153.017 307.317 149.46ZM443.911 173.293C442.844 175.783 441.777 177.917 441.066 180.407 440.71 180.407 440.71 180.051 440.71 180.051 441.422 176.139 432.529 174.716 429.683 173.649 428.26 172.937 428.26 172.937 427.193 174.36L426.837 174.36C427.193 173.649 427.548 172.581 427.904 171.87 428.971 169.38 429.683 167.246 430.75 165.111 431.462 163.333 433.24 162.266 435.374 162.621 436.441 162.977 437.153 163.333 437.864 164.4 438.22 165.111 438.22 167.601 439.287 166.89 441.422 166.178 443.2 165.823 445.334 165.467 446.046 165.467 446.402 164.756 447.113 164.4 446.757 165.467 446.757 165.823 446.757 166.178 446.402 166.89 446.046 167.246 446.046 167.957 445.69 169.024 444.978 169.38 444.267 169.736 442.133 170.092 440.354 170.803 437.864 171.158 437.509 171.158 437.153 171.87 436.797 171.87 437.153 172.226 437.509 172.581 437.864 172.581 438.931 172.937 440.354 173.649 441.066 174.004 442.844 174.36 443.2 174.004 443.911 173.293 443.556 173.293 443.556 173.293 443.911 173.293 443.911 172.937 443.911 173.293 443.911 173.293ZM436.797 169.024 436.797 168.313C436.441 166.89 434.307 165.467 432.884 165.467 430.394 165.467 430.038 167.601 430.038 169.024 431.817 169.736 433.24 170.447 435.018 171.158 435.374 171.158 435.73 171.158 435.73 170.803 436.441 170.803 436.797 169.736 436.797 169.024ZM433.596 151.594C435.374 151.95 436.441 151.95 438.22 152.306L438.22 152.661C437.864 152.661 437.509 152.661 437.153 153.017 434.663 153.017 432.529 155.507 433.952 157.997 436.086 161.554 439.999 154.796 441.422 153.373 444.267 150.527 448.536 152.661 449.247 155.863 449.603 157.286 449.247 158.709 448.536 160.132 447.824 161.199 447.113 162.266 448.536 162.977L448.18 162.977 442.844 161.91 442.844 161.554C443.556 161.554 444.267 161.199 444.978 161.199 447.113 160.487 449.247 158.353 448.536 155.863 447.469 151.594 443.2 156.93 442.488 157.997 439.643 161.91 432.173 161.199 433.596 155.152 433.24 154.796 435.018 152.661 433.596 151.594ZM297.001 111.043C298.78 111.754 300.559 112.11 302.337 112.466L302.337 112.822C299.847 112.822 295.223 114.244 295.934 117.801 297.001 123.137 302.693 116.379 303.76 114.956 306.25 113.177 309.096 113.889 310.163 116.379 311.23 118.513 310.874 119.936 309.452 121.714 309.452 122.07 309.096 122.07 309.096 122.426 308.384 123.137 308.029 123.849 309.096 124.56L304.827 123.493 304.827 123.137C306.961 123.137 309.807 122.426 310.163 119.936 310.518 118.868 310.163 117.801 309.096 117.446 305.894 115.667 303.404 123.137 300.203 123.137 297.001 123.493 294.512 120.647 295.223 117.446 295.578 116.379 295.934 115.667 296.29 114.6 297.357 113.177 297.357 113.177 297.001 111.043 298.78 111.754 297.357 113.177 297.001 111.043ZM298.78 174.36C297.713 171.514 296.646 169.38 295.934 166.534L296.29 166.534C296.29 166.89 296.646 166.89 296.646 167.246 297.357 169.38 300.559 167.601 301.626 166.89 301.982 166.89 302.337 166.534 302.337 166.178 304.116 163.689 305.894 161.91 307.673 159.42 308.029 158.709 308.384 157.997 308.74 156.93 309.807 159.064 310.518 161.199 311.586 163.333 309.807 162.266 309.452 162.977 308.029 164.4 307.317 165.111 304.116 168.313 305.539 169.024 308.029 169.38 313.009 171.158 313.009 167.601L313.364 167.601C314.076 169.024 314.431 170.092 315.143 171.514 312.297 169.38 308.384 169.736 305.539 169.024 304.827 169.024 304.116 169.024 303.76 169.38 302.693 169.736 301.626 170.092 300.914 170.447 299.491 171.158 299.136 171.514 299.847 172.937 298.78 174.36 299.136 174.36 298.78 174.36ZM433.952 127.05C433.24 124.916 432.529 122.782 431.817 120.292L432.173 120.292C433.24 121.714 433.596 121.003 435.018 119.936 435.73 119.224 438.931 116.734 438.931 116.023 438.576 116.023 438.576 116.023 438.22 115.667 436.441 115.312 435.018 114.6 433.24 114.244 431.106 113.889 431.106 113.889 430.75 116.023 430.394 114.6 430.038 113.177 429.327 112.11 430.038 112.466 430.75 113.177 431.462 113.533 434.307 114.244 436.441 114.956 439.287 115.667L440.71 115.667C441.777 115.312 442.844 114.956 443.556 114.6 444.978 114.244 445.334 113.889 444.978 112.11L444.978 111.754 445.334 111.754C446.046 114.6 447.113 116.734 447.824 119.58L447.469 119.58C447.469 119.224 447.113 119.224 447.113 118.868 446.757 117.801 446.046 117.446 444.978 117.801 442.488 118.868 441.066 119.224 439.287 121.359 436.797 123.137 435.018 124.916 433.952 127.05 433.24 125.271 434.307 126.339 433.952 127.05ZM314.787 197.126C313.009 194.992 311.586 193.568 309.452 191.434L309.807 191.079C310.163 191.079 310.163 191.434 310.518 191.434 311.23 192.146 311.941 192.146 312.653 191.434 315.499 188.589 318.344 185.743 321.19 183.253L321.19 182.186C319.767 180.407 318.344 180.051 316.922 181.118 316.566 181.118 316.566 181.474 316.21 181.474 316.566 181.118 316.566 180.763 316.566 180.763 319.056 178.273 319.056 178.273 321.546 180.763 323.68 183.253 325.814 185.387 328.304 187.877 328.304 187.877 328.66 188.589 328.304 188.589 327.593 189.656 326.526 190.367 325.458 191.079L325.103 191.079C325.103 190.723 325.458 190.367 325.458 190.367 326.526 188.589 326.17 187.521 324.392 186.098 324.036 185.743 323.68 185.743 323.324 186.098 321.901 187.521 312.653 194.636 314.787 196.414L314.787 197.126C315.143 196.77 314.787 196.77 314.787 197.126 313.009 195.347 314.787 196.77 314.787 197.126ZM439.643 141.279C438.576 141.279 437.153 141.634 436.441 141.634 436.441 141.634 436.086 141.279 436.086 140.923 435.374 137.01 435.018 132.742 434.307 128.473 434.307 128.117 434.663 127.761 434.663 127.761 435.73 127.406 437.153 127.406 437.864 127.406L437.864 127.761C437.509 127.761 437.509 128.117 437.153 128.117 435.374 129.184 434.663 130.251 435.018 132.03 435.018 132.742 435.374 132.742 436.086 132.742 439.643 132.03 443.911 131.674 447.469 130.963 448.892 130.607 449.247 130.607 449.247 128.829L449.603 128.473 450.67 135.943 450.314 135.943C449.603 134.52 449.958 134.164 447.469 134.164 443.911 134.52 439.999 135.232 436.441 135.587 435.374 135.587 435.73 137.721 436.086 138.433 436.441 139.5 437.509 139.856 438.931 140.212 439.287 140.923 439.287 140.923 439.643 141.279 439.643 140.923 439.643 141.279 439.643 141.279ZM301.626 180.763C300.559 179.34 299.847 178.273 298.78 176.85L299.136 176.85C301.982 178.273 304.116 176.85 306.606 176.85 309.452 176.494 312.653 175.783 315.499 175.427L316.21 175.427C315.854 175.783 315.854 176.139 315.854 176.494 313.364 180.051 311.23 183.608 308.74 187.166 308.029 188.233 307.317 189.3 307.673 190.367L307.317 190.367C305.894 188.233 304.471 186.454 303.404 184.32L303.76 184.32C305.183 185.743 305.183 185.743 306.25 183.964 307.673 181.83 307.673 182.541 306.25 180.763 305.539 179.34 304.471 178.629 303.404 177.917L302.337 177.917C300.559 178.273 300.203 178.629 300.914 180.407 301.982 180.407 302.337 180.407 301.626 180.763 301.982 180.407 301.982 180.407 301.626 180.763 300.914 179.34 301.982 180.407 301.626 180.763ZM311.586 176.85C309.807 176.85 308.384 177.206 306.606 177.206 306.606 177.206 306.25 177.561 306.25 177.917 306.961 178.984 307.673 180.051 308.384 180.763L309.096 180.763C309.807 179.34 310.518 178.273 311.586 176.85ZM449.958 142.346 449.958 150.171C448.536 146.97 444.978 148.037 442.133 148.037 439.287 148.037 436.086 146.97 435.018 149.816L435.018 142.346 435.374 142.346C435.374 142.346 435.374 142.702 435.73 142.702 436.441 145.547 440.71 144.48 443.2 144.48 445.69 144.48 448.892 145.547 449.958 142.346 449.958 145.191 449.247 144.48 449.958 142.346Z" fill="#085521" fill-rule="nonzero" fill-opacity="1"/><path d="M326.882 199.26C326.526 198.904 326.526 198.904 326.17 198.904 325.103 198.193 324.036 197.126 323.324 196.414 322.613 196.059 322.969 195.703 323.324 194.992 324.747 193.568 326.526 196.059 327.593 197.126 327.949 197.126 327.949 197.837 327.949 197.837 327.593 198.548 327.237 198.904 326.882 199.26 326.526 198.904 327.237 198.904 326.882 199.26Z" fill="#085521" fill-rule="nonzero" fill-opacity="1"/><path d="M425.059 90.4115C424.703 90.7672 424.347 91.1227 424.347 90.7672L423.28 89.7C423.28 89.7 423.636 88.9885 423.636 89.3443 424.347 89.7 424.703 90.0557 425.059 90.4115 424.703 90.7672 424.703 90.0557 425.059 90.4115ZM436.797 169.024C436.441 169.736 436.441 170.447 436.086 171.514 436.086 171.87 435.374 171.87 435.374 171.87 433.596 171.158 432.173 170.447 430.394 169.736 428.971 169.736 431.817 166.534 432.173 166.178 433.952 165.823 436.797 167.246 436.797 169.024 436.797 168.669 436.797 168.669 436.797 169.024 436.441 169.736 436.797 168.669 436.797 169.024ZM311.586 176.85C310.518 178.273 309.807 179.696 308.74 180.763L308.029 180.763C307.317 179.696 306.606 178.629 305.894 177.917 305.894 177.917 305.894 177.561 306.25 177.206 308.029 177.206 309.807 176.85 311.586 176.85Z" fill="#FFFFFF" fill-rule="nonzero" fill-opacity="1"/><path d="M349.647 119.58C351.07 119.58 352.493 119.936 353.204 118.513 353.916 112.466 356.762 107.841 362.097 104.996 370.634 100.371 382.373 104.284 385.93 113.533 386.642 115.312 386.642 116.734 386.997 118.513 386.997 120.292 393.044 119.58 394.467 119.936 402.293 121.359 407.984 125.627 411.542 132.742 417.944 145.191 412.253 159.42 399.447 165.111 396.957 166.178 394.111 166.89 391.266 166.89 388.776 167.246 386.997 166.178 386.997 169.024 384.863 186.098 362.097 188.233 354.627 174.004 353.56 171.87 353.204 170.092 352.849 167.957 352.849 166.534 346.09 166.534 344.667 166.178 334.352 163.689 326.526 154.44 326.17 143.769 325.814 133.453 332.573 124.204 342.177 121.003 344.667 119.936 347.157 119.58 349.647 119.58ZM410.474 135.232C410.474 134.876 410.474 134.876 410.474 135.232L410.474 134.52C406.917 126.694 400.514 122.07 391.977 121.359 390.91 121.359 386.642 122.07 385.93 121.003 384.863 119.936 385.219 115.667 384.507 114.244 380.95 104.996 369.212 101.083 361.03 107.13 358.184 108.909 356.05 111.754 354.983 114.956 354.627 116.734 354.271 118.157 354.271 119.936 354.271 121.714 349.647 121.003 348.58 121.003 339.687 121.714 333.284 125.983 329.727 134.164L329.727 134.876 330.439 134.876C335.774 134.164 340.754 137.366 342.889 142.346 343.956 145.903 363.52 141.99 363.52 144.48 363.52 146.258 354.271 145.547 352.849 145.547 351.781 145.547 342.533 144.836 343.6 146.97 344.667 148.037 348.58 147.326 350.003 147.326L362.097 147.326C362.453 147.326 363.876 148.037 362.809 148.749 361.03 149.46 357.473 148.749 355.694 148.749L355.694 149.104 356.05 149.104C359.251 150.527 359.607 153.373 359.607 156.574L359.607 163.689C359.607 165.111 358.896 169.024 359.963 170.092 362.453 172.581 362.097 165.467 362.097 164.756L362.097 158.709C362.097 156.93 361.741 157.286 360.674 156.219 361.741 156.219 363.52 155.863 364.587 155.863 365.654 155.863 365.298 158.353 365.298 159.064 366.01 158.709 368.5 157.642 367.433 156.219 367.433 155.863 367.077 155.863 367.077 155.507 368.144 155.507 369.923 154.44 370.99 155.507 370.99 155.507 370.99 155.863 370.634 156.219 370.634 157.997 371.346 158.353 373.124 159.064 373.124 158.353 372.768 155.863 373.836 155.863 374.903 155.863 377.749 155.507 378.104 156.219L377.749 156.574C375.614 156.574 377.037 170.092 377.037 170.092 379.883 171.514 379.172 160.843 379.172 159.42 379.172 155.863 378.46 150.527 382.373 148.749 382.728 148.749 382.728 148.393 383.084 148.393 382.373 147.682 375.259 148.749 375.97 146.97 375.97 146.258 390.554 146.614 391.977 146.614L395.178 146.614C395.89 146.614 395.89 145.191 395.534 144.836 393.4 143.769 388.776 144.836 386.642 144.836L377.037 144.836C376.326 144.836 375.97 144.48 375.97 143.769 375.97 142.702 378.816 143.057 379.527 143.057L388.776 143.057C390.554 143.057 395.534 144.124 396.602 141.99 398.38 137.721 401.226 134.876 405.85 134.164 407.984 134.876 409.051 135.232 410.474 135.232 410.474 134.876 409.051 135.232 410.474 135.232ZM355.694 171.514C357.473 176.85 363.52 182.186 371.346 181.83 378.816 181.118 383.796 175.427 384.507 171.514L355.694 171.514C357.473 176.85 365.654 171.514 355.694 171.514ZM374.191 165.467 374.191 161.199C373.48 159.42 371.346 158.353 369.567 158.353 366.721 158.709 366.366 161.199 366.366 163.689 366.366 165.111 365.654 170.092 367.433 170.092 368.5 170.092 374.903 170.803 374.903 169.38 374.191 167.957 374.191 166.534 374.191 165.467ZM358.54 155.863C358.54 155.863 358.896 155.863 358.54 155.863 358.54 154.796 358.54 153.729 358.184 153.017 357.473 150.171 352.849 149.104 351.07 151.594 350.714 151.95 350.714 152.306 351.07 152.661 352.493 154.44 353.204 156.219 353.204 158.353 353.204 159.42 358.54 159.42 358.54 158.353 358.896 157.286 358.54 156.574 358.54 155.863ZM381.661 155.863C381.661 156.219 381.306 157.997 382.017 158.353 383.084 158.709 385.219 158.353 386.286 158.353 387.353 158.353 388.42 153.017 389.132 151.95 389.487 151.594 389.487 151.238 389.132 150.527 387.708 149.104 386.286 148.749 384.863 149.46 383.44 149.816 382.373 150.883 382.373 152.306 381.661 153.729 381.661 154.796 381.661 155.863ZM355.339 160.132C355.339 160.132 354.983 160.132 355.339 160.132 356.05 161.199 356.406 169.736 356.762 169.736 358.896 169.38 358.184 167.246 358.184 165.467 358.184 164.044 358.896 161.199 357.828 160.132 357.117 159.776 356.05 160.132 355.339 160.132ZM385.219 159.776C384.507 159.776 382.728 159.42 382.017 160.132 380.95 161.199 381.661 164.756 381.661 165.823 381.661 166.178 381.306 169.024 382.017 169.38 383.44 169.736 384.152 169.38 384.152 167.957 384.152 165.467 383.44 162.977 385.219 159.776 384.152 159.776 383.44 162.977 385.219 159.776ZM394.111 148.037 387.708 148.037C388.776 148.749 389.487 149.46 390.199 150.171 390.199 150.171 390.554 150.527 390.91 150.171 391.977 149.816 392.689 149.104 394.111 148.037 391.977 148.037 392.689 149.104 394.111 148.037ZM346.09 148.037C347.513 148.749 348.58 149.46 349.292 150.171L350.003 150.171C351.07 149.46 351.781 148.749 352.849 148.037L346.09 148.037C347.513 148.749 348.58 148.037 346.09 148.037Z" fill="#085521" fill-rule="nonzero" fill-opacity="1"/><path d="M394.111 148.037C392.689 148.749 391.621 149.46 390.91 150.171L390.199 150.171C389.487 149.46 388.42 148.749 387.708 148.037L394.111 148.037C392.689 148.749 391.977 148.037 394.111 148.037ZM346.09 148.037 352.849 148.037C351.781 148.749 351.07 149.46 350.003 150.171L349.292 150.171C348.58 149.46 347.513 148.749 346.09 148.037 348.58 148.037 347.513 148.749 346.09 148.037Z" fill="#FFFFFF" fill-rule="nonzero" fill-opacity="1"/><path d="M376.326 137.721C376.326 139.5 375.259 150.883 377.393 150.883 378.104 151.95 377.749 153.017 377.749 154.084 377.749 155.152 375.259 154.796 374.547 154.796 373.124 154.796 362.097 155.152 362.809 153.729 362.809 152.661 362.453 150.883 363.876 150.883 364.943 148.749 364.232 145.191 364.232 143.057L364.232 132.03C364.232 129.896 363.164 125.627 366.01 125.627 368.144 125.627 367.433 127.761 367.433 129.54 367.433 130.963 367.077 132.742 367.433 134.164 367.789 134.876 369.567 134.164 370.279 134.164 371.346 134.164 372.413 134.876 372.413 133.453L372.413 128.473C372.413 126.694 372.413 126.339 374.191 126.339 375.614 126.339 375.97 126.694 375.97 128.117 376.326 131.674 376.326 134.876 376.326 137.721ZM367.433 140.923C367.433 141.99 366.721 146.97 368.5 146.97 370.99 146.97 372.413 147.682 372.413 144.836L372.413 137.721C372.413 135.943 372.413 135.587 370.634 135.232 370.279 134.876 367.789 135.232 367.433 135.943 367.077 136.654 367.433 139.5 367.433 140.923ZM370.279 148.037C368.5 148.037 367.433 147.682 367.433 149.816 367.433 151.238 370.634 150.527 371.346 150.527 372.413 150.527 372.413 148.037 370.99 148.037L370.279 148.037ZM370.634 108.553C370.634 109.976 370.634 114.956 373.124 114.956 373.48 115.312 372.768 117.801 372.768 117.801 373.836 118.157 373.124 120.647 374.547 120.292L374.903 120.292C377.037 120.292 375.97 122.782 377.393 122.782 378.46 122.782 378.104 124.204 377.393 124.204L372.057 124.204C370.99 124.204 363.52 124.916 363.52 123.493 363.52 122.426 364.943 123.137 364.943 121.714 364.943 120.647 364.943 120.292 366.366 120.292L366.721 120.292C367.789 120.292 368.144 120.292 368.144 118.868 368.144 117.801 369.923 117.09 368.856 116.379 368.144 116.023 368.144 115.312 368.856 114.956L369.212 114.6C369.212 113.533 369.923 113.177 370.634 112.466 370.279 112.11 369.567 108.553 370.634 108.553 370.279 108.553 370.279 108.553 370.634 108.553 370.634 109.62 370.279 108.553 370.634 108.553ZM371.702 118.868C371.702 118.513 371.346 117.801 371.346 117.446L371.346 120.292C371.346 119.58 371.702 119.224 371.702 118.868ZM369.923 118.868C369.567 118.513 369.567 117.801 369.212 117.446 369.212 118.157 368.144 119.224 369.212 119.936 369.212 119.936 369.567 119.224 369.923 118.868 369.567 118.513 369.567 119.224 369.923 118.868Z" fill="#085521" fill-rule="nonzero" fill-opacity="1"/><path d="M370.279 130.607C368.144 130.607 369.212 128.117 370.279 127.761 371.702 127.406 372.057 130.607 370.279 130.607ZM365.654 175.427C365.654 173.649 367.433 172.581 368.5 173.293L368.856 173.649C368.856 174.716 368.856 175.427 368.5 176.139 368.5 177.561 365.298 176.494 364.943 176.494 365.654 176.494 366.721 175.783 367.789 175.783 367.077 175.783 366.366 175.427 365.654 175.427 365.654 174.004 365.654 175.427 365.654 175.427ZM367.077 174.004 366.366 174.716 366.721 175.072C367.077 175.072 367.077 174.716 367.433 174.716 367.433 174.36 367.433 174.36 367.077 174.004 366.721 174.004 367.433 174.36 367.077 174.004ZM372.413 176.139C372.768 176.494 373.48 176.85 373.48 176.85 373.48 177.561 370.634 177.206 370.279 176.85 370.279 176.494 370.634 176.139 370.634 175.783 370.99 175.427 371.346 175.427 371.702 175.072 372.057 175.072 372.057 174.716 372.057 174.36L371.346 174.36C370.99 174.36 370.634 174.36 370.279 174.716 370.279 174.36 369.923 174.004 370.279 173.649 370.279 173.293 375.259 173.293 372.413 176.139 372.413 175.783 372.413 176.139 372.413 176.139ZM378.46 176.139C378.104 176.494 378.104 177.206 377.749 177.206 377.749 177.206 374.191 175.783 374.903 174.716 374.903 174.36 375.259 174.004 375.259 174.004 375.97 172.581 377.037 175.783 378.46 176.139 378.46 175.427 378.46 175.783 378.46 176.139 378.104 176.494 378.46 175.783 378.46 176.139ZM364.587 174.004C364.232 175.072 363.876 176.139 363.52 176.85 363.164 177.561 362.809 177.206 362.097 177.206 362.809 176.139 363.164 174.716 363.52 174.004 363.52 174.004 363.876 173.649 364.587 174.004 364.232 173.649 364.232 173.649 364.587 174.004 364.232 174.716 364.232 173.649 364.587 174.004Z" fill="#085521" fill-rule="nonzero" fill-opacity="1"/><path d="M367.077 174.004C367.433 174.36 367.433 174.36 367.433 174.716 367.077 174.716 367.077 175.072 366.721 175.072L366.366 174.716 367.077 174.004C367.433 174.004 366.721 174.36 367.077 174.004Z" fill="#FFFFFF" fill-rule="nonzero" fill-opacity="1"/><path d="M370.99 140.923C370.99 141.634 371.346 143.769 370.279 143.769 369.212 142.702 369.212 138.433 370.279 137.01 371.346 138.077 370.99 139.5 370.99 140.923Z" fill="#085521" fill-rule="nonzero" fill-opacity="1"/></g></g></g></g></g></svg>